<svg width="19" height="18" viewBox="0 0 19 18" fill="none" xmlns="http://www.w3.org/2000/svg">
<path d="M17.5048 4.8509L11.5673 1.75715C11.4796 1.71146 11.3811 1.6875 11.2811 1.6875C11.181 1.6875 11.0826 1.71146 10.9949 1.75715L5.05738 4.8509C4.96429 4.89946 4.88666 4.9708 4.83259 5.05747C4.77852 5.14415 4.75 5.24298 4.75 5.34365C4.75 5.44433 4.77852 5.54316 4.83259 5.62984C4.88666 5.71651 4.96429 5.78785 5.05738 5.8364L10.6873 8.76984V14.7993L8.88469 13.8599L8.31232 14.8448L10.9949 16.2427C11.0826 16.2883 11.181 16.3123 11.2811 16.3123C11.3811 16.3123 11.4796 16.2883 11.5673 16.2427L17.5048 13.1489C17.5979 13.1004 17.6755 13.029 17.7296 12.9424C17.7837 12.8557 17.8123 12.7568 17.8123 12.6562V5.34365C17.8123 5.24296 17.7837 5.14412 17.7296 5.05744C17.6755 4.97077 17.5979 4.89944 17.5048 4.8509ZM11.2811 2.89228L15.9865 5.34365L11.2811 7.79503L6.5756 5.34365L11.2811 2.89228ZM16.6248 12.3237L11.8748 14.7987V8.76928L16.6248 6.29428V12.3237Z" fill="#5D5D5D"/>
<path d="M5.9375 9H1.1875V7.875H5.9375V9ZM7.125 13.5H2.375V12.375H7.125V13.5ZM8.3125 11.25H3.5625V10.125H8.3125V11.25Z" fill="#5D5D5D"/>
</svg>
