<svg width="34" height="23" viewBox="0 0 34 23" fill="none" xmlns="http://www.w3.org/2000/svg">
<g id="Payment Method/Amex">
<rect id="BASE" x="0.25" y="0.25" width="32.6445" height="22.2276" rx="1.25" fill="#1F72CD" stroke="#D9D9D9" stroke-width="0.5"/>
<path id="AMEX" fill-rule="evenodd" clip-rule="evenodd" d="M5.97289 7.98389L2.88281 15.0233H6.58207L7.04067 13.9009H8.08893L8.54753 15.0233H12.6194V14.1666L12.9822 15.0233H15.0885L15.4513 14.1485V15.0233H23.9196L24.9493 13.93L25.9135 15.0233L30.263 15.0323L27.1632 11.5232L30.263 7.98389H25.981L24.9786 9.05691L24.0448 7.98389H14.8324L14.0413 9.80081L13.2317 7.98389H9.54013V8.81137L9.12947 7.98389H5.97289ZM18.6211 8.98291H23.484L24.9713 10.6368L26.5066 8.98291H27.994L25.7341 11.5217L27.994 14.0311H26.4392L24.9518 12.3581L23.4087 14.0311H18.6211V8.98291ZM19.8203 10.9518V10.0297V10.0288H22.8546L24.1786 11.5035L22.796 12.9862H19.8203V11.9795H22.4732V10.9518H19.8203ZM6.69042 8.98291H8.49361L10.5433 13.7563V8.98291H12.5186L14.1017 12.4054L15.5607 8.98291H17.5262V14.0341H16.3302L16.3205 10.076L14.5769 14.0341H13.5071L11.7538 10.076V14.0341H9.29348L8.82705 12.9017H6.30711L5.84164 14.0331H4.52344L6.69042 8.98291ZM6.73828 11.8557L7.5685 9.83838L8.39776 11.8557H6.73828Z" fill="white"/>
</g>
</svg>
