<svg width="34" height="23" viewBox="0 0 34 23" fill="none" xmlns="http://www.w3.org/2000/svg">
<g id="Payment Method/Discover">
<path id="BASE" d="M2.13281 0.25H32.2773C32.9677 0.250028 33.5273 0.809661 33.5273 1.5V21.2275C33.5273 21.9179 32.9677 22.4775 32.2773 22.4775H2.13281C1.44246 22.4775 0.882812 21.9179 0.882812 21.2275V1.5C0.882812 0.809644 1.44246 0.25 2.13281 0.25Z" fill="white" stroke="#D9D9D9" stroke-width="0.5"/>
<g id="Discover">
<path id="Stripe" d="M14 22L33 15V21C33 21.5523 32.5523 22 32 22H14Z" fill="#FD6020"/>
<g id="Group 63">
<path id="DISC-VER" fill-rule="evenodd" clip-rule="evenodd" d="M28.8723 8.628C29.8765 8.628 30.4288 9.08591 30.4288 9.95084C30.4791 10.6123 30.0272 11.1719 29.4246 11.2737L30.7803 13.1562H29.7259L28.571 11.3246H28.4706V13.1562H27.617V8.628H28.8723ZM28.4725 10.7141H28.7235C29.2759 10.7141 29.5269 10.4597 29.5269 10.0018C29.5269 9.5948 29.2759 9.3404 28.7235 9.3404H28.4725V10.7141ZM24.6562 13.1561H27.0664V12.3929H25.5098V11.1719H27.0162V10.4087H25.5098V9.39111H27.0664V8.62793H24.6562V13.1561ZM22.1446 11.6806L20.9897 8.62793H20.0859L21.9437 13.2579H22.3956L24.2535 8.62793H23.3497L22.1446 11.6806ZM11.9492 10.9173C11.9492 12.1893 12.9534 13.2578 14.2087 13.2578C14.6104 13.2578 14.9619 13.156 15.3134 13.0034V11.9858C15.0623 12.2911 14.7108 12.4946 14.3091 12.4946C13.5058 12.4946 12.853 11.884 12.853 11.07V10.9682C12.8028 10.1542 13.4555 9.44187 14.2589 9.39099C14.6606 9.39099 15.0623 9.5945 15.3134 9.89977V8.8822C15.0121 8.67869 14.6104 8.62781 14.2589 8.62781C12.9534 8.52605 11.9492 9.5945 11.9492 10.9173ZM10.3947 10.3578C9.89256 10.1543 9.74193 10.0525 9.74193 9.79813C9.79214 9.49286 10.0432 9.23846 10.3445 9.28934C10.5955 9.28934 10.8466 9.44198 11.0474 9.64549L11.4993 9.03495C11.1478 8.72968 10.6959 8.52616 10.244 8.52616C9.54109 8.47528 8.93855 9.03495 8.88834 9.74725V9.79813C8.88834 10.4087 9.1394 10.7648 9.94278 11.0192C10.1436 11.0701 10.3445 11.1719 10.5453 11.2736C10.6959 11.3754 10.7964 11.528 10.7964 11.7315C10.7964 12.0877 10.4951 12.3929 10.1938 12.3929H10.1436C9.74193 12.3929 9.39045 12.1385 9.23982 11.7824L8.68749 12.3421C8.98876 12.9017 9.5913 13.207 10.1938 13.207C10.9972 13.2579 11.65 12.6473 11.7002 11.8333V11.6806C11.65 11.0701 11.3989 10.7648 10.3947 10.3578ZM7.48437 13.1561H8.33796V8.62793H7.48437V13.1561ZM3.51562 8.628H4.77091H5.02196C6.22703 8.67888 7.18104 9.69645 7.13083 10.9175C7.13083 11.579 6.82957 12.1895 6.32745 12.6474C5.87555 13.0036 5.32323 13.2071 4.77091 13.1562H3.51562V8.628ZM4.62215 12.393C5.02384 12.4439 5.47574 12.2912 5.77701 12.0369C6.07828 11.7316 6.22891 11.3246 6.22891 10.8666C6.22891 10.4596 6.07828 10.0526 5.77701 9.74732C5.47574 9.49292 5.02384 9.34029 4.62215 9.39117H4.37109V12.393H4.62215Z" fill="black"/>
<path id="O" fill-rule="evenodd" clip-rule="evenodd" d="M17.8761 8.52295C16.6208 8.52295 15.5664 9.54052 15.5664 10.8634C15.5664 12.1353 16.5706 13.2038 17.8761 13.2547C19.1816 13.3055 20.1858 12.2371 20.236 10.9142C20.1858 9.5914 19.1816 8.52295 17.8761 8.52295V8.52295Z" fill="#FD6020"/>
</g>
</g>
</g>
</svg>
