<svg width="33" height="23" viewBox="0 0 33 23" fill="none" xmlns="http://www.w3.org/2000/svg">
<rect x="0.539062" y="0.25" width="31.6975" height="22.2276" rx="1.25" fill="white" stroke="#D9D9D9" stroke-width="0.5"/>
<path fill-rule="evenodd" clip-rule="evenodd" d="M16.6839 16.6171C15.4555 17.6624 13.8623 18.2934 12.1214 18.2934C8.23584 18.2934 5.08594 15.1499 5.08594 11.2722C5.08594 7.39449 8.23584 4.25098 12.1214 4.25098C13.8623 4.25098 15.4555 4.882 16.6839 5.92735C17.9123 4.882 19.5055 4.25098 21.2464 4.25098C25.132 4.25098 28.2819 7.39449 28.2819 11.2722C28.2819 15.1499 25.132 18.2934 21.2464 18.2934C19.5055 18.2934 17.9123 17.6624 16.6839 16.6171Z" fill="#ED0006"/>
<path fill-rule="evenodd" clip-rule="evenodd" d="M16.6836 16.6171C18.1969 15.3292 19.1566 13.4126 19.1566 11.2722C19.1566 9.13185 18.1969 7.21518 16.6836 5.92735C17.912 4.882 19.5052 4.25098 21.2461 4.25098C25.1317 4.25098 28.2816 7.39449 28.2816 11.2722C28.2816 15.1499 25.1317 18.2934 21.2461 18.2934C19.5052 18.2934 17.912 17.6624 16.6836 16.6171Z" fill="#F9A000"/>
<path fill-rule="evenodd" clip-rule="evenodd" d="M16.6839 16.617C18.1973 15.3291 19.1569 13.4125 19.1569 11.2721C19.1569 9.13175 18.1973 7.21508 16.6839 5.92725C15.1706 7.21508 14.2109 9.13175 14.2109 11.2721C14.2109 13.4125 15.1706 15.3291 16.6839 16.617Z" fill="#FF5E00"/>
</svg>
