<svg width="34" height="23" viewBox="0 0 34 23" fill="none" xmlns="http://www.w3.org/2000/svg">
<rect x="0.734375" y="0.25" width="32.6445" height="22.2276" rx="1.25" fill="white" stroke="#D9D9D9" stroke-width="0.5"/>
<path fill-rule="evenodd" clip-rule="evenodd" d="M9.99711 14.4326H8.50262C8.40035 14.4326 8.31337 14.5059 8.29742 14.6054L7.69297 18.383C7.68096 18.4575 7.73952 18.5247 7.81623 18.5247H8.52971C8.63198 18.5247 8.71896 18.4514 8.73491 18.3518L8.89794 17.3329C8.91366 17.2331 9.00086 17.1599 9.10291 17.1599H9.57602C10.5605 17.1599 11.1286 16.6903 11.2771 15.7598C11.3439 15.3527 11.2799 15.0328 11.0865 14.8087C10.8741 14.5628 10.4973 14.4326 9.99711 14.4326ZM10.1695 15.8123C10.0878 16.3409 9.67808 16.3409 9.28189 16.3409H9.05637L9.21458 15.3537C9.22397 15.2941 9.27642 15.2501 9.33761 15.2501H9.44097C9.71085 15.2501 9.96546 15.2501 10.097 15.4017C10.1754 15.4922 10.1995 15.6266 10.1695 15.8123ZM14.4645 15.7954H13.7488C13.6879 15.7954 13.6352 15.8393 13.6258 15.8991L13.5941 16.0963L13.5441 16.0249C13.3891 15.8032 13.0437 15.7291 12.6988 15.7291C11.9079 15.7291 11.2325 16.3195 11.1009 17.1478C11.0326 17.5609 11.1297 17.9559 11.3675 18.2314C11.5856 18.4847 11.8977 18.5903 12.2689 18.5903C12.9061 18.5903 13.2596 18.1864 13.2596 18.1864L13.2276 18.3825C13.2156 18.4574 13.2742 18.5246 13.3504 18.5246H13.9951C14.0976 18.5246 14.1841 18.4513 14.2003 18.3516L14.5871 15.9371C14.5993 15.8629 14.541 15.7954 14.4645 15.7954ZM13.4669 17.1684C13.3978 17.5714 13.0733 17.842 12.6595 17.842C12.4517 17.842 12.2855 17.7763 12.1789 17.6518C12.0732 17.5282 12.0329 17.3521 12.0666 17.1562C12.1311 16.7565 12.4611 16.4772 12.8686 16.4772C13.0718 16.4772 13.237 16.5437 13.3459 16.6693C13.4549 16.7962 13.4982 16.9732 13.4669 17.1684ZM17.5569 15.7953H18.2761C18.3768 15.7953 18.4356 15.9066 18.3784 15.9881L15.9864 19.3914C15.9477 19.4466 15.8839 19.4794 15.8157 19.4794H15.0974C14.9963 19.4794 14.9372 19.3671 14.9957 19.2855L15.7406 18.2492L14.9484 15.9577C14.921 15.878 14.9807 15.7953 15.0666 15.7953H15.7733C15.8651 15.7953 15.9461 15.8547 15.9726 15.9413L16.393 17.3253L17.385 15.8851C17.4238 15.8289 17.4883 15.7953 17.5569 15.7953Z" fill="#253B80"/>
<path fill-rule="evenodd" clip-rule="evenodd" d="M25.3546 18.3832L25.9679 14.5365C25.9773 14.4768 26.0298 14.4328 26.0908 14.4326H26.7813C26.8576 14.4326 26.9161 14.5 26.9041 14.5746L26.2992 18.3519C26.2835 18.4516 26.1965 18.5249 26.094 18.5249H25.4774C25.4011 18.5249 25.3426 18.4577 25.3546 18.3832ZM20.6573 14.4328H19.1626C19.0605 14.4328 18.9736 14.5061 18.9576 14.6056L18.3531 18.3832C18.3411 18.4577 18.3997 18.5249 18.476 18.5249H19.243C19.3143 18.5249 19.3752 18.4737 19.3864 18.4039L19.5579 17.3331C19.5736 17.2333 19.6608 17.1601 19.7629 17.1601H20.2357C21.2204 17.1601 21.7884 16.6905 21.937 15.76C22.004 15.3529 21.9396 15.033 21.7463 14.8089C21.534 14.563 21.1575 14.4328 20.6573 14.4328ZM20.8298 15.8125C20.7482 16.3411 20.3385 16.3411 19.9421 16.3411H19.7167L19.8752 15.3539C19.8846 15.2943 19.9366 15.2503 19.998 15.2503H20.1013C20.371 15.2503 20.6259 15.2503 20.7573 15.4019C20.8358 15.4924 20.8597 15.6268 20.8298 15.8125ZM25.1243 15.7956H24.4092C24.3477 15.7956 24.2955 15.8395 24.2863 15.8993L24.2546 16.0965L24.2044 16.0251C24.0495 15.8034 23.7042 15.7293 23.3594 15.7293C22.5684 15.7293 21.8932 16.3197 21.7616 17.148C21.6935 17.5611 21.7903 17.9561 22.028 18.2316C22.2465 18.4849 22.5582 18.5905 22.9295 18.5905C23.5667 18.5905 23.92 18.1866 23.92 18.1866L23.8882 18.3827C23.8761 18.4576 23.9347 18.5248 24.0114 18.5248H24.6558C24.7578 18.5248 24.8448 18.4515 24.8608 18.3518L25.2478 15.9373C25.2596 15.8631 25.2011 15.7956 25.1243 15.7956ZM24.1268 17.1686C24.0581 17.5716 23.7332 17.8422 23.3193 17.8422C23.1119 17.8422 22.9454 17.7765 22.8387 17.652C22.733 17.5284 22.6932 17.3523 22.7265 17.1564C22.7913 16.7567 23.1209 16.4774 23.5284 16.4774C23.7317 16.4774 23.8968 16.5439 24.0058 16.6695C24.1152 16.7964 24.1585 16.9734 24.1268 17.1686Z" fill="#179BD7"/>
<path d="M15.5314 13.0815L15.7151 11.9311L15.3059 11.9218H13.3516L14.7097 3.43314C14.7139 3.40751 14.7276 3.38361 14.7476 3.36665C14.7677 3.34968 14.7933 3.34033 14.82 3.34033H18.1153C19.2093 3.34033 19.9642 3.56473 20.3584 4.00763C20.5431 4.21541 20.6609 4.43253 20.7178 4.67147C20.7775 4.92219 20.7786 5.22173 20.7202 5.58706L20.716 5.61373V5.84781L20.9008 5.95102C21.0565 6.03239 21.18 6.12554 21.2749 6.2322C21.4331 6.40985 21.5353 6.63563 21.5785 6.90331C21.6231 7.17861 21.6083 7.5062 21.5353 7.87708C21.451 8.30371 21.3146 8.67528 21.1306 8.97932C20.9612 9.25947 20.7455 9.49178 20.4894 9.67191C20.2449 9.84297 19.9544 9.97285 19.6259 10.056C19.3076 10.1376 18.9447 10.1789 18.5467 10.1789H18.2902C18.1069 10.1789 17.9287 10.244 17.7889 10.3607C17.6488 10.4798 17.5559 10.6425 17.5275 10.8206L17.5082 10.9241L17.1836 12.9516L17.1688 13.026C17.165 13.0497 17.1583 13.0614 17.1485 13.0694C17.1397 13.0766 17.1271 13.0815 17.1147 13.0815H15.5314Z" fill="#253B80"/>
<path d="M21.0714 5.64111C21.0616 5.7031 21.0504 5.76646 21.0377 5.83157C20.6031 8.03086 19.1164 8.79062 17.2175 8.79062H16.2507C16.0186 8.79062 15.8229 8.95683 15.7867 9.18262L15.2916 12.2771L15.1515 13.1542C15.1279 13.3024 15.2439 13.4361 15.3956 13.4361H17.1104C17.3135 13.4361 17.4859 13.2907 17.5179 13.0933L17.5348 13.0074L17.8577 10.9878L17.8784 10.8771C17.9099 10.679 18.0828 10.5335 18.2858 10.5335H18.5423C20.2036 10.5335 21.5042 9.86866 21.8844 7.94463C22.0431 7.14089 21.9609 6.46979 21.5407 5.99779C21.4136 5.85546 21.2558 5.73738 21.0714 5.64111Z" fill="#179BD7"/>
<path d="M20.6192 5.46186C20.5529 5.44281 20.4843 5.42549 20.414 5.40991C20.3434 5.39468 20.271 5.38117 20.1966 5.3694C19.9359 5.32784 19.6503 5.30811 19.3443 5.30811H16.7615C16.6979 5.30811 16.6375 5.3223 16.5834 5.34793C16.4643 5.40437 16.3758 5.51554 16.3544 5.65162L15.8048 9.08198L15.7891 9.18205C15.8253 8.95627 16.0209 8.79005 16.2531 8.79005H17.2199C19.1188 8.79005 20.6056 8.02995 21.0401 5.831C21.0531 5.7659 21.064 5.70253 21.0738 5.64055C20.9639 5.58306 20.8447 5.53389 20.7165 5.49198C20.685 5.48159 20.6523 5.47156 20.6192 5.46186Z" fill="#222D65"/>
<path d="M16.354 5.65193C16.3754 5.51583 16.464 5.40468 16.5831 5.34857C16.6376 5.32295 16.6976 5.30875 16.7611 5.30875H19.344C19.6501 5.30875 19.9356 5.32849 20.1962 5.37005C20.2708 5.38182 20.3432 5.39532 20.4138 5.41056C20.484 5.42615 20.5525 5.44346 20.619 5.4625C20.6519 5.4722 20.6846 5.48224 20.7165 5.49229C20.8448 5.53418 20.9639 5.58371 21.0738 5.64084C21.2032 4.8281 21.0728 4.27473 20.627 3.77364C20.1356 3.22201 19.2485 2.98584 18.1134 2.98584H14.8181C14.5862 2.98584 14.3885 3.15205 14.3526 3.37818L12.9801 11.9541C12.953 12.1237 13.0858 12.2768 13.2593 12.2768H15.2938L15.8046 9.08228L16.354 5.65193Z" fill="#253B80"/>
</svg>
