<svg width="34" height="23" viewBox="0 0 34 23" fill="none" xmlns="http://www.w3.org/2000/svg">
<g id="Payment Method/Venmo">
<rect id="BASE" x="1.02344" y="0.25" width="32.6445" height="22.2276" rx="1.25" fill="#B2FCE4" stroke="#D9D9D9" stroke-width="0.5"/>
<g id="Group">
<path id="Vector" d="M30.5899 9.81643L29.7768 9.3511L28.9519 8.87873C28.4067 8.56616 27.7251 8.95863 27.7251 9.58846V9.69422C27.7251 9.75297 27.7557 9.80703 27.8074 9.83523L28.1905 10.0538C28.2962 10.1149 28.4278 10.0373 28.4278 9.91513V9.66367C28.4278 9.53911 28.5618 9.46156 28.6699 9.52266L29.4219 9.95508L30.1716 10.3852C30.2797 10.4463 30.2797 10.6037 30.1716 10.6648L29.4219 11.0949L28.6699 11.5273C28.5618 11.5884 28.4278 11.5109 28.4278 11.3863V11.2618C28.4278 10.6319 27.7463 10.2371 27.2011 10.552L26.3762 11.0244L25.563 11.4897C25.0154 11.8046 25.0154 12.5966 25.563 12.9115L26.3762 13.3769L27.2011 13.8492C27.7463 14.1618 28.4278 13.7693 28.4278 13.1395V13.0337C28.4278 12.975 28.3973 12.9209 28.3456 12.8927L27.9625 12.6742C27.8567 12.6131 27.7251 12.6906 27.7251 12.8128V13.0643C27.7251 13.1889 27.5912 13.2664 27.4831 13.2053L26.731 12.7729L25.9814 12.3428C25.8732 12.2817 25.8732 12.1242 25.9814 12.0631L26.731 11.6331L27.4831 11.2006C27.5912 11.1395 27.7251 11.2171 27.7251 11.3417V11.4662C27.7251 12.096 28.4067 12.4909 28.9519 12.176L29.7768 11.7036L30.5899 11.2383C31.1375 10.921 31.1375 10.1313 30.5899 9.81643Z" fill="black"/>
<g id="Group_2">
<path id="Vector_2" d="M25.2545 9.97168L23.3509 13.9034H22.5613L23.2734 12.4346L22.1523 9.97168H22.9631L23.6823 11.6215L24.4672 9.97168H25.2545Z" fill="black"/>
</g>
<g id="Group_3">
<g id="Group_4">
<path id="Vector_3" d="M6.22087 11.3672C6.22087 10.8972 5.8801 10.5682 5.46178 10.5682C5.04346 10.5682 4.70269 10.9042 4.70269 11.3672C4.70269 11.8255 5.04346 12.1662 5.46178 12.1662C5.8801 12.1662 6.22087 11.8372 6.22087 11.3672ZM6.22792 12.7632V12.4013C6.02111 12.6527 5.71324 12.8078 5.34662 12.8078C4.58048 12.8078 4 12.1944 4 11.3672C4 10.547 4.60398 9.92188 5.36307 9.92188C5.72029 9.92188 6.02111 10.0793 6.22792 10.3237V9.97123H6.91415V12.7632H6.22792Z" fill="black"/>
<path id="Vector_4" d="M10.2527 12.1428C10.013 12.1428 9.94483 12.0535 9.94483 11.8185V10.5799H10.3867V9.97126H9.94483V9.28973H9.24214V9.97126H8.335V9.69395C8.335 9.45893 8.4243 9.36963 8.67106 9.36963H8.82617V8.8291H8.48775C7.90727 8.8291 7.63231 9.01946 7.63231 9.59994V9.97361H7.24219V10.5799H7.63231V12.7632H8.335V10.5799H9.24214V11.9477C9.24214 12.5164 9.4607 12.7632 10.0294 12.7632H10.3914V12.1428H10.2527Z" fill="black"/>
<path id="Vector_5" d="M12.7745 11.1161C12.7252 10.7542 12.4291 10.5357 12.0813 10.5357C11.7358 10.5357 11.4491 10.7472 11.3786 11.1161H12.7745ZM11.3715 11.5509C11.4209 11.9645 11.717 12.1995 12.093 12.1995C12.3891 12.1995 12.6171 12.0609 12.751 11.8376H13.4725C13.3057 12.4299 12.7745 12.8082 12.0766 12.8082C11.2329 12.8082 10.6406 12.216 10.6406 11.3723C10.6406 10.5286 11.2658 9.91992 12.093 9.91992C12.9249 9.91992 13.5289 10.5333 13.5289 11.3723C13.5289 11.4334 13.5242 11.4945 13.5125 11.5509H11.3715Z" fill="black"/>
<path id="Vector_6" d="M18.0044 11.3676C18.0044 10.9164 17.6637 10.5686 17.2453 10.5686C16.827 10.5686 16.4863 10.9046 16.4863 11.3676C16.4863 11.8259 16.827 12.1666 17.2453 12.1666C17.6637 12.1666 18.0044 11.8212 18.0044 11.3676ZM15.793 13.9034V9.97162H16.4792V10.3335C16.686 10.0774 16.9939 9.91992 17.3605 9.91992C18.1149 9.91992 18.7071 10.5404 18.7071 11.3605C18.7071 12.1807 18.1031 12.8059 17.3441 12.8059C16.9915 12.8059 16.7025 12.6672 16.5004 12.4322V13.901H15.793V13.9034Z" fill="black"/>
<path id="Vector_7" d="M21.1818 11.3672C21.1818 10.8972 20.841 10.5682 20.4227 10.5682C20.0044 10.5682 19.6636 10.9042 19.6636 11.3672C19.6636 11.8255 20.0044 12.1662 20.4227 12.1662C20.841 12.1662 21.1818 11.8372 21.1818 11.3672ZM21.1889 12.7632V12.4013C20.982 12.6527 20.6742 12.8078 20.3076 12.8078C19.5414 12.8078 18.9609 12.1944 18.9609 11.3672C18.9609 10.547 19.5649 9.92188 20.324 9.92188C20.6812 9.92188 20.982 10.0793 21.1889 10.3237V9.97123H21.8751V12.7632H21.1889Z" fill="black"/>
<path id="Vector_8" d="M14.5558 10.2442C14.5558 10.2442 14.7297 9.91992 15.1598 9.91992C15.3431 9.91992 15.4606 9.98338 15.4606 9.98338V10.6955C15.4606 10.6955 15.2021 10.5357 14.9647 10.5686C14.7273 10.6015 14.5769 10.8177 14.5769 11.1091V12.7612H13.8672V9.97162H14.5534V10.2442H14.5558Z" fill="black"/>
</g>
</g>
</g>
</g>
</svg>
