<svg width="34" height="23" viewBox="0 0 34 23" fill="none" xmlns="http://www.w3.org/2000/svg">
<g id="Payment Method/Visa">
<rect id="BASE" x="0.394531" y="0.25" width="32.6445" height="22.2276" rx="1.25" fill="white" stroke="#D9D9D9" stroke-width="0.5"/>
<path id="visa-logo" fill-rule="evenodd" clip-rule="evenodd" d="M10.2654 15.397H8.25746L6.75177 9.65267C6.6803 9.38843 6.52856 9.15483 6.30535 9.04473C5.7483 8.76805 5.13447 8.54785 4.46484 8.4368V8.21564H7.69943C8.14585 8.21564 8.48067 8.54785 8.53647 8.93368L9.31771 13.0772L11.3246 8.21564H13.2768L10.2654 15.397ZM14.3924 15.3971H12.4961L14.0576 8.21582H15.9539L14.3924 15.3971ZM18.4054 10.2049C18.4612 9.81809 18.796 9.59693 19.1866 9.59693C19.8004 9.54141 20.4691 9.65246 21.0271 9.92819L21.3619 8.38202C20.8039 8.16086 20.1901 8.0498 19.633 8.0498C17.7925 8.0498 16.4532 9.04452 16.4532 10.4251C16.4532 11.4753 17.4019 12.0268 18.0715 12.359C18.796 12.6902 19.075 12.9114 19.0192 13.2426C19.0192 13.7395 18.4612 13.9607 17.9041 13.9607C17.2345 13.9607 16.5648 13.7951 15.952 13.5184L15.6172 15.0655C16.2868 15.3412 17.0113 15.4523 17.6809 15.4523C19.7446 15.5069 21.0271 14.5131 21.0271 13.0215C21.0271 11.1431 18.4054 11.033 18.4054 10.2049ZM27.665 15.3971L26.1594 8.21582H24.5421C24.2072 8.21582 23.8724 8.43698 23.7608 8.76823L20.9727 15.3971H22.9248L23.3144 14.3479H25.7129L25.9361 15.3971H27.665ZM24.8248 10.1489L25.3818 12.8554H23.8203L24.8248 10.1489Z" fill="#172B85"/>
</g>
</svg>
